<?xml version="1.0" encoding="UTF-8"?>
<svg xmlns="http://www.w3.org/2000/svg" xmlns:xlink="http://www.w3.org/1999/xlink" width="48pt" height="48pt" viewBox="0 0 48 48" version="1.1">
<g id="surface8935063">
<path style=" stroke:none;fill-rule:nonzero;fill:rgb(19.607843%,25.882354%,36.078432%);fill-opacity:1;" d="M 24 2 C 17.351562 2 12 7.351562 12 14 L 12 16 C 9.800781 16 8 17.800781 8 20 L 8 40 C 8 42.199219 9.800781 44 12 44 L 36 44 C 38.199219 44 40 42.199219 40 40 L 40 20 C 40 17.800781 38.199219 16 36 16 L 36 14 C 36 7.351562 30.648438 2 24 2 Z M 24 6 C 28.550781 6 32 9.449219 32 14 L 32 16 L 16 16 L 16 14 C 16 9.449219 19.449219 6 24 6 Z M 24 26 C 26.199219 26 28 27.800781 28 30 C 28 32.199219 26.199219 34 24 34 C 21.800781 34 20 32.199219 20 30 C 20 27.800781 21.800781 26 24 26 Z M 24 26 "/>
</g>
</svg>
